<?xml version="1.0" standalone="no"?><!DOCTYPE svg PUBLIC "-//W3C//DTD SVG 1.1//EN" "http://www.w3.org/Graphics/SVG/1.1/DTD/svg11.dtd"><svg class="icon" width="200px" height="200.00px" viewBox="0 0 1024 1024" version="1.1" xmlns="http://www.w3.org/2000/svg"><path fill="#1296db" d="M721.066667 341.333333a213.418667 213.418667 0 0 0-418.133334 0h418.133334z m-81.578667 256a42.922667 42.922667 0 0 1 34.944 17.493334L802.133333 785.066667a42.666667 42.666667 0 0 1-68.266666 51.2L618.666667 682.666667H554.666667v213.333333a42.666667 42.666667 0 0 1-85.333334 0v-213.333333H405.333333l-115.2 153.6a42.666667 42.666667 0 0 1-68.266666-51.2L298.666667 682.666667H256a170.666667 170.666667 0 0 1-40.277333-336.554667 298.709333 298.709333 0 0 1 592.554666 0 170.752 170.752 0 0 1 23.296 324.309333 42.666667 42.666667 0 1 1-31.786666-79.189333A85.333333 85.333333 0 0 0 768 426.666667H256a85.333333 85.333333 0 1 0 0 170.666666h383.488zM298.666667 554.666667a42.666667 42.666667 0 1 1 0-85.333334 42.666667 42.666667 0 0 1 0 85.333334z m213.333333 0a42.666667 42.666667 0 1 1 0-85.333334 42.666667 42.666667 0 0 1 0 85.333334z m213.333333 0a42.666667 42.666667 0 1 1 0-85.333334 42.666667 42.666667 0 0 1 0 85.333334z" /></svg>